<svg version="1" xmlns="http://www.w3.org/2000/svg" width="2638.667" height="2638.667" viewBox="0 0 1979.000000 1979.000000"><path d="M971.7 48.7c-.1 0-8.5.4-18.7.8-10.2.3-20.1.8-22 1-1.9.2-8.9.6-15.5 1-6.6.3-12.7.8-13.5 1-.8.2-4.6.7-8.5 1.1-10.3.9-15.8 1.5-28.5 3-4.9.6-15.3 2.1-18.6 2.8-1.1.2-4.5.7-7.5 1-3 .3-11.5 1.7-18.9 3.1-7.4 1.3-15.1 2.7-17 3-1.9.3-7.3 1.5-12 2.5s-9.6 2.1-11 2.3c-5.3 1-26 6-37 8.9-6.3 1.6-11.9 3.1-12.5 3.2-27.7 6.8-98.4 31-120.3 41.2-2.9 1.3-5.5 2.4-5.7 2.4-.2 0-3.4 1.3-7 3-3.6 1.6-6.8 3-7 3-.9 0-32.4 14.8-44 20.7-23.2 11.7-62.1 33.6-72.2 40.4-2.3 1.6-4.4 2.9-4.8 2.9-.3 0-2.1 1.1-3.9 2.5-1.8 1.4-3.6 2.5-4 2.5-.4 0-1.2.4-1.9 1-.7.5-8.2 5.6-16.7 11.3-8.5 5.7-17.2 11.6-19.4 13-4 2.8-18.7 13.8-19.6 14.7-.3.3-1.8 1.4-3.4 2.4-3.4 2.2-37.1 29.1-43.1 34.5-2.3 2-7.2 6.3-11 9.6-6.3 5.5-11.5 10.2-21.4 19.4-18.1 16.8-36.4 35.6-67.6 69.5-.6.6-3 3.6-5.5 6.6-2.5 3-5 5.9-5.6 6.5-1.7 1.7-14.8 17.6-20 24.5-5.1 6.8-7.2 9.4-8.9 11.4-2.6 2.8-25 34.4-32.7 46.1-11.1 16.8-27.8 43.9-32.7 53-1.2 2.2-3.4 6.2-4.9 9-7.5 13.5-11.6 21.2-18.5 35-8.3 16.6-18.1 37.5-22.2 47.5-1.5 3.6-3.6 8.5-4.7 11-2.5 5.4-15 37.7-18.5 47.5-4.1 11.9-14.4 42.7-15.8 48-9.4 33.2-14.4 52-18 68.5-1.1 4.8-3.5 16-3.9 18-4.7 24.4-6.1 32.1-8.2 45.5-.2 1.6-.7 4.1-.9 5.5-.6 2.8-4.5 32.7-5 38-.2 1.9-.6 6.9-1 11-.3 4.1-.8 8.6-1 10-1.7 11.5-3.9 60.6-3.9 85 .1 21 1.5 60.2 2.8 72.5.7 6.9 1.3 14 2.1 24.5.3 4.1.8 8.2 1 9 .2.8.7 4 1 7 .3 3 .8 6.6 1 8 .2 1.4.6 4.7 1 7.5.3 2.7.7 6 .9 7.1.3 1.2.7 3.7 1 5.5 3.4 21.5 4.3 26.4 6.3 35.9 1.8 8.9 3.2 15.6 3.8 19 .2 1.4 1.8 8.1 3.6 15 1.7 6.9 3.2 13.2 3.4 14 8.1 34.4 29.3 94.6 46.9 133.5.8 1.6 4 9.1 7.1 16.5 5.5 13.1 28.8 60.8 34.1 70 1.4 2.5 5.5 9.7 9.1 16 3.7 6.3 9.2 15.7 12.5 20.8 3.2 5.1 5.8 9.5 5.8 9.7 0 .7 18 27.6 26.8 40 39.6 55.8 87.3 109.6 137.2 154.5 4.6 4.1 9.2 8.4 10.4 9.5 1.2 1.1 6.4 5.6 11.6 10 61.6 52.2 122.5 92.9 192.5 128.5 55.8 28.5 106.2 48.3 167 65.9 8.6 2.5 40.9 10.7 45 11.5 1.7.3 8.4 1.6 15 3 13.5 2.8 13.7 2.9 29.5 5.6 11.6 2 27.9 4.5 35.8 5.5 8.6 1.1 11.7 1.5 13.7 1.9 1.1.2 4.9.7 8.5 1.1 3.6.4 7.3.9 8.3 1.1.9.1 5.2.5 9.5.8 4.2.3 8.6.8 9.7 1 2.2.4 14.1 1.4 24.7 2.1 3.6.2 12.4.7 19.5 1.2 25.3 1.5 109.1.8 120.3-1.2 1.4-.2 7-.7 12.5-1 5.5-.4 11.3-.8 12.8-1 1.5-.2 6-.6 10-1 4-.3 7.9-.8 8.7-1 .8-.2 4.4-.7 8-1 3.6-.3 7.6-.7 9-1 1.4-.2 4.5-.7 7-1 2.5-.3 8.3-1.2 13-2 4.7-.8 10.5-1.7 13-2 2.5-.3 5.2-.7 6-1 .8-.2 3.1-.7 5-1 4-.7 24.5-4.5 27.5-5.2 1.1-.2 2.9-.6 4-.8 19.9-4.4 35.6-8.2 49.5-12 7.3-2 14.1-3.8 14.9-4 4.6-1 34.1-10.4 51.6-16.4 89.4-31 171.2-73.3 246.9-127.9 16-11.5 47.2-35.4 49.1-37.5.6-.7 5.1-4.5 10-8.6 9.4-7.8 11.2-9.4 26.5-23.1 18.9-16.9 63.8-62.7 76.5-78 2.1-2.5 4-4.7 4.4-5 3.7-2.7 41.3-50.6 56.5-72 9.1-12.8 37.6-55.6 37.6-56.5 0-.2 2.4-4.2 5.3-8.7 5.5-8.5 13.4-22.4 21.9-38.3 4.8-9 22.8-45.3 22.8-46 0-.2 1.3-3.2 2.9-6.7 5.2-11.2 15.2-35.9 21.1-51.8 5.3-14.2 16.7-48.3 17.5-51.9.2-.9 1.3-4.6 2.4-8.2 5.4-17.1 17.4-65.4 19.6-78.9.3-1.9.8-4.2 1-5 .5-1.6.6-2.5 3.5-18.5 2.1-12.1 2.9-16.7 3.5-20.5.2-1.4.6-4.3 1-6.5.7-4.7 1.4-9.6 2-14.5.3-1.9.7-4.9 1-6.5.2-1.7.7-5.7 1-9 .3-3.3.8-7 1-8.2.2-1.2.6-5.7 1-10s.8-8.9 1.1-10.3c.3-2.3.6-5.7 1.9-25.5 1.3-18.9 1.9-39.1 1.9-63.5 0-25.6-1-60.7-1.9-66.2-.2-1.2-.6-6.8-.9-12.3-.3-5.5-.8-11.1-1-12.5-.2-1.4-.7-5.9-1.1-10-.3-4.1-.8-8.9-1-10.5-.2-1.7-.7-5.3-1-8-.3-2.8-1-7.9-1.5-11.5-.5-3.6-1.1-8.3-1.4-10.5-.6-4.2-5.2-32.1-6.1-36.5-.3-1.4-1.2-5.9-2-10-6.7-34.2-18.3-77-29.4-109-4.4-12.8-13.3-36.4-15.5-41.3-.8-1.8-5.3-12.4-9.9-23.7-7.9-19.1-21.5-49.1-25.9-56.9-1-1.8-3.9-7.2-6.3-12-2.5-4.7-6-11.3-7.8-14.6-1.9-3.3-4.7-8.3-6.2-11-8.5-15-34.4-55.8-41.4-65.1-.9-1.2-2.3-3.2-3.1-4.4-8-11.8-30.6-41.5-40.9-54-26.6-31.9-41.6-48.5-69.1-76-16.3-16.2-33.2-32.2-44-41.6-2.5-2.1-6.3-5.5-8.5-7.5s-6.9-6.1-10.5-9c-3.6-2.9-6.7-5.6-7-5.9-1.4-1.7-36.2-28.9-48-37.5-23.4-17.1-61.2-42.1-78.1-51.8-2.4-1.4-8.4-4.8-13.4-7.7-14.7-8.6-25.8-14.5-47.5-25.1-11.3-5.5-21.2-10.4-22-10.8-.8-.5-10.3-4.5-21-9.1-10.7-4.5-20.8-8.8-22.5-9.5-1.6-.8-7.9-3.2-14-5.6-6-2.3-13.9-5.3-17.4-6.6-25.2-9.7-77.7-25.3-108.6-32.3-2.7-.7-5.7-1.3-6.5-1.6-6-1.5-11.2-2.7-15.5-3.4-2.7-.5-6.2-1.2-7.7-1.5-1.6-.3-3.8-.7-5-.9-1.3-.2-3.4-.7-4.8-1-4.1-1-7.9-1.6-21-3.7-6.9-1.1-13.6-2.2-15-2.5-2.7-.5-13.3-1.9-21.5-2.9-2.7-.3-6.3-.8-8-1-1.6-.2-5.2-.7-8-1-2.7-.3-6.8-.7-9-1-2.2-.3-7.1-.7-11-1-3.8-.3-9.7-.8-13-1-13.6-1.2-17.8-1.4-35-2.1-16.4-.6-58.4-1.1-58.8-.7zM857.3 271c3.1 1.2 7.5 3.9 9.7 6 3.8 3.7 4 4.1 4.1 10.2.1 6.5.1 8.1 1.4 46.8.8 22.2 1.3 559.4.6 565.8-.2 2.5-2.1 5-8.1 11-7.8 7.8-76.4 75.3-108.3 106.6-9.5 9.2-40.9 40.3-69.8 69-49.9 49.4-138.5 136.8-161.8 159.6-28.2 27.5-70.8 68.9-81.1 78.8-6.3 6.1-17.6 16.9-25 24.1-15.6 15-23.1 19.6-36 21.7-9.1 1.5-18.8 1.2-21.9-.7-2.5-1.5-18.7-25.3-26.1-38.4-1.3-2.2-3.6-6.3-5.2-9-6.5-11.4-22.8-45-28.7-59-3.4-8.3-6.6-15.9-7.1-17-2.8-6.3-13.3-37.3-18-53-3-10.1-10.5-38.6-13.5-51.5-.9-3.8-6.6-32.9-7.1-36-.3-1.9-.7-4.3-1-5.3-.3-1-.7-3.2-.9-5-.3-1.8-.7-5-1-7.2-.4-2.2-.8-5.1-1-6.5-.4-3.2-2.5-16.8-3.1-20-.2-1.4-.7-5.4-1-9-.3-3.6-.7-7.6-.9-8.9-2-11.7-2.7-83.7-1.2-105.6 1.3-16.9 2.4-30 3.2-35.5.2-1.4.6-5 1-8 .3-3 1-8 1.5-11s1.2-7.8 1.5-10.5c.4-2.8.8-5.7 1-6.5.2-.8.7-3.1 1-5 8-49.1 24.3-104.3 46.3-157 11.6-28 32.2-68.4 47-92.5 1.7-2.8 4.3-7 5.8-9.5 4.4-7.4 20.1-30.7 28.3-42 7.1-9.9 27.8-36.9 29.1-38 .3-.3 3.2-3.7 6.4-7.5 19.5-23.3 48.9-53.4 72.2-74 4.3-3.8 8.5-7.6 9.2-8.3.8-.7 6.2-5.1 12-9.9 5.9-4.8 10.9-9 11.2-9.3 1.5-1.8 34.8-26.1 47.6-34.7 13.3-8.9 34.7-22.2 50.4-31.3 16.7-9.6 69.2-33.7 97.1-44.6 24.2-9.4 52.5-18.4 62.9-20 1.9-.3 10.7-2.6 19.5-5.1 33.9-9.7 47-11.3 57.8-7.3zm296.7 1.9c6.3 1.6 15.5 4.1 20.4 5.6 4.9 1.4 13.9 3.7 20 5.1 23.6 5.2 62.8 19 92.4 32.5 3.4 1.6 6.5 2.9 6.7 2.9.7 0 45.8 21.2 47 22 .6.4 4.6 2.7 9 5.1 4.4 2.3 10 5.5 12.5 7s8.1 4.9 12.5 7.5c20.9 12.3 60.7 40.1 77 53.6 1.1.9 5.4 4.4 9.5 7.8 21.7 18 32.5 27.7 51.4 46.5 12.9 12.9 17.5 17.7 30.7 32 25.6 28 62.9 78.5 82.4 111.7 14.7 25.1 31.6 57.1 38.7 73.3 13.8 31.5 19.5 45.9 26.6 67 10.1 29.6 21.7 72.4 24.7 90.8.3 1.8.8 4.5 1.2 6.2.4 1.6.7 3.7.8 4.5.1.8.4 2.8.8 4.5 1 4.1 1.4 6.1 2.2 12.5.4 3 .9 6.4 1.1 7.5.2 1.1.6 4 .9 6.5.3 2.5.8 5.6 1 7 .7 3.6 2.5 20.3 3.1 28.5.3 3.8.7 8.8.9 11 2.3 23.6 2.3 87.5 0 103.7-.2 1.8-.7 7.3-1 12.3-.3 4.9-1.2 13-2 18-.8 4.9-1.7 10.8-2 13-.3 2.3-.7 5.2-1 6.5-.3 1.4-.7 4.5-1 7-.3 2.5-1 6.7-1.5 9.5-.5 2.7-2.2 11.1-3.6 18.5s-3.9 19-5.5 25.7c-1.5 6.7-3 13.2-3.3 14.5-.3 1.3-1.7 6.6-3.2 11.8-1.4 5.2-2.7 9.9-2.8 10.5-1.5 6.7-10.7 35.3-17 52.4-12.5 34.4-29.2 69.6-47.6 100.6-9.1 15.3-20.9 32.4-23.7 34.2-1.7 1.2-4.6 1.7-8.7 1.7-20.7.1-30.2-4-47.5-20.8-6.4-6.2-13.4-13-15.6-15.1-2.2-2-15.9-15.3-30.5-29.5-14.6-14.1-29.9-29-34-32.9-4.1-4-28.6-28-54.4-53.4-25.8-25.4-52.8-52-60-59.1-7.2-7.1-45.7-45.1-85.6-84.6-39.9-39.5-79.8-78.9-88.7-87.6-8.9-8.8-32.1-31.5-51.6-50.6l-35.3-34.7-.4-5.3c-.2-2.9-.3-14.5-.2-25.8v-40.5c0-11 0-29.5.1-41 .1-24.4 0-166.6-.1-296.5-.1-76.8.6-146.8 1.7-179.5.1-4.4.4-13.4.5-20 .2-8 .8-12.8 1.7-14.5 1.9-3.3 7.6-7.3 13.3-9.4 6.7-2.5 22.4-1.5 37 2.3zM873.5 1432.2c-.4 199.3-.8 239.9-2.1 248.8-1.6 9.9-5.1 19.4-8.4 23l-3 3.2-11.9-.6c-6.5-.3-12.5-.8-13.2-1-.8-.3-4.3-.7-7.8-1.1-5.2-.5-16.8-2.5-28.2-5-16.3-3.5-48.2-13.9-76.7-24.9-23.9-9.3-26.4-10.4-58.2-25.4-4.1-1.9-7.7-3.6-8-3.7-2.6-.8-37.2-18.8-41-21.3-1.4-.9-4.8-2.8-7.6-4.4-5.5-2.9-17.1-10-19.1-11.8-.7-.5-1.6-1-2-1-.4 0-3.2-1.8-6.1-4-2.9-2.2-5.6-4-6-4-.4 0-5.9-4-12.2-8.8-10.2-7.8-11.7-9.3-13.3-13.7-1.1-2.9-1.9-7.9-2-12.1-.1-6.8.1-7.6 4.3-14.8 3.9-6.5 11.5-14.7 54.6-57.9 43.9-43.9 105.2-104.5 135.4-133.7 5.4-5.2 15.9-15.4 23.2-22.5 33.5-32.5 65-63 72.3-70 4.4-4.3 14.4-14 22.2-21.6 7.8-7.7 14.4-13.9 14.7-13.9.3 0 .4 91 .1 202.2zm250.1-179.7c25.1 24.4 28.6 27.8 63.4 61.5 13.3 12.9 27.4 26.6 31.4 30.4 25.9 24.8 85.9 84 138.2 136.1 55.4 55.4 61.6 61.8 65.9 69.3l4.8 8.2-.7 8.1c-.4 4.9-1.4 9.5-2.6 11.9-2.7 5.4-19.5 18.1-45.4 34.4-14.5 9.2-52.9 29.6-73.6 39-7.7 3.5-20 9.2-28.3 13-1.8.8-12 4.9-22.7 9.1-32.3 12.7-68.5 24.3-84.5 27-1.6.3-6.1 1.2-10 2-3.8.8-9.9 1.7-13.5 2.1-3.6.3-6.8.8-7.1 1-.4.2-6 .7-12.5 1-11.2.6-12.1.5-14.7-1.6-3.6-2.8-5.4-6.4-7.8-15.8-2.4-8.8-2.5-11.3-3.5-70.7-.9-56.7-1.1-388.6-.2-388.3.3.2 10.9 10.2 23.4 22.3z"/></svg>